<svg xmlns="http://www.w3.org/2000/svg" width="400" height="400" viewBox="0 0 400 400">
    
    <g transform="translate(-24.5,15.5) scale(1)">
  <defs>
    <linearGradient id="bowl" x1="0" y1="0" x2="0" y2="1">
      <stop offset="0" stop-color="#1c6880"/><stop offset="1" stop-color="#175a6d"/>
    </linearGradient>
    <mask id="gap" maskUnits="userSpaceOnUse" x="0" y="0" width="400" height="400">
      <rect width="400" height="400" fill="#fff"/>
      <path d="M117,14 L152,95 V343 Q152,355 140,355 H94 Q82,355 82,343 V95 Z" fill="#000" stroke="#000" stroke-width="18" stroke-linejoin="round"/>
    </mask>
    <clipPath id="pc"><path d="M117,14 L152,95 V343 Q152,355 140,355 H94 Q82,355 82,343 V95 Z"/></clipPath>
  </defs>
  <path mask="url(#gap)" fill="url(#bowl)"
        d="M150,45 H212 A155,155 0 0 1 212,355 H161 V305 H212 A105,105 0 0 0 212,95 H150 Z"/>
  <g clip-path="url(#pc)">
    <rect x="70" y="0" width="100" height="400" fill="#f8d1aa"/>
    <path fill="#1c6880" d="M82,104 Q93.7,86 105.3,104 Q117,86 128.7,104 Q140.3,86 152,104 V400 H82 Z"/>
    <path fill="#16586e" d="M128.7,104 Q140.3,86 152,104 V400 H133 Z"/>
    <path fill="#485158" d="M117,14 L130,44 H104 Z"/>
    <rect x="82" y="281" width="70" height="40" fill="#eef2f3"/>
    <rect x="82" y="290" width="70" height="4" fill="#c3ced1"/>
    <rect x="82" y="300" width="70" height="4" fill="#c3ced1"/>
    <rect x="82" y="310" width="70" height="4" fill="#c3ced1"/>
    <rect x="82" y="321" width="70" height="40" fill="#ec7c92"/>
  </g></g></svg>